<?xml version="1.0" encoding="utf-8"?>
<!-- Generator: Adobe Illustrator 22.1.0, SVG Export Plug-In . SVG Version: 6.00 Build 0)  -->
<svg version="1.1" id="Layer_1" xmlns="http://www.w3.org/2000/svg" xmlns:xlink="http://www.w3.org/1999/xlink" x="0px" y="0px"
	 viewBox="0 0 24 24" style="enable-background:new 0 0 24 24;" xml:space="preserve">
<title>Vimeo icon</title>
<g id="surface1">
	<path d="M18.8,1H5.1C2.7,1,1,2.8,1,5.2v13.7C1,21.1,2.8,23,5.1,23h13.7c2.3,0,4.1-1.8,4.1-4.1V5C22.8,2.8,21,1,18.8,1z M7.7,19.5
		H4.3V9.3h3.4V19.5z M5.9,8L5.9,8C4.8,8,4.1,7.2,4.1,6.3c0-1,0.8-1.7,1.9-1.7s1.9,0.7,1.9,1.7S7,8,5.9,8z M19.5,19.5h-3.4V14
		c0-1.3-0.3-2.2-1.5-2.2c-0.9,0-1.4,0.6-1.7,1.2c-0.1,0.2-0.1,0.6-0.1,0.8v5.7H9.4V9.3h3.4v1.5c0.4-0.7,1.2-1.7,3-1.7
		c2.2,0,3.8,1.5,3.8,4.5V19.5L19.5,19.5z"/>
</g>
</svg>
