<?xml version="1.0" encoding="utf-8"?>
<!-- Generator: Adobe Illustrator 22.1.0, SVG Export Plug-In . SVG Version: 6.00 Build 0)  -->
<svg version="1.1" id="Layer_1" xmlns="http://www.w3.org/2000/svg" xmlns:xlink="http://www.w3.org/1999/xlink" x="0px" y="0px"
	 viewBox="0 0 24 24" style="enable-background:new 0 0 24 24;" xml:space="preserve">
<title>Vimeo icon</title>
<g id="surface1">
	<path d="M18.2,2.3H5.8c-2.1,0-3.7,1.6-3.7,3.7v12.2c0,2,1.7,3.7,3.7,3.7h12.4c2.1,0,3.7-1.6,3.7-3.7V5.9
		C21.9,3.9,20.2,2.3,18.2,2.3z M8.2,18.8H5.1l0-9.1h3.1L8.2,18.8z M6.6,8.5L6.6,8.5c-1,0-1.7-0.7-1.7-1.5c0-0.9,0.7-1.5,1.7-1.5
		S8.3,6.1,8.3,7C8.3,7.9,7.6,8.5,6.6,8.5z M18.9,18.8h-3.1v-4.9c0-1.2-0.3-2-1.4-2c-0.8,0-1.3,0.5-1.5,1.1c-0.1,0.2-0.1,0.5-0.1,0.7
		v5.1H9.7l0-9.1h3.1l0,1.3c0.4-0.6,1.1-1.5,2.7-1.5c2,0,3.4,1.3,3.4,4L18.9,18.8L18.9,18.8z"/>
</g>
</svg>
